HIERARCHY
ROOT RootJoint
{
    OFFSET   0.000000   0.000000   0.000000
    CHANNELS 6 Xposition Yposition Zposition Xrotation Yrotation Zrotation
    JOINT pelvis_lowerback
    {
        OFFSET   0.000000   0.093605   0.000000
        CHANNELS 3 Xrotation Yrotation Zrotation
        JOINT lowerback_torso
        {
            OFFSET   0.000000   0.100000   0.000000
            CHANNELS 3 Xrotation Yrotation Zrotation
            JOINT torso_head
            {
                OFFSET   0.000000   0.282350   0.000000
                CHANNELS 3 Xrotation Yrotation Zrotation
                End Site
                {
                    OFFSET   0.000000   0.192650   0.000000
                }
            }
            JOINT rTorso_Clavicle
            {
                OFFSET  -0.001000   0.157500   0.000000
                CHANNELS 3 Xrotation Yrotation Zrotation
                JOINT rShoulder
                {
                    OFFSET  -0.117647   0.000000   0.000000
                    CHANNELS 3 Xrotation Yrotation Zrotation
                    JOINT rElbow
                    {
                        OFFSET  -0.245000   0.000000   0.000000
                        CHANNELS 3 Xrotation Yrotation Zrotation
                        JOINT rWrist
                        {
                            OFFSET  -0.240000   0.000000   0.000000
                            CHANNELS 3 Xrotation Yrotation Zrotation
                            End Site
                            {
                                OFFSET  -0.116353  -0.002500   0.000000
                            }
                        }
                    }
                }
            }
            JOINT lTorso_Clavicle
            {
                OFFSET   0.001000   0.157500   0.000000
                CHANNELS 3 Xrotation Yrotation Zrotation
                JOINT lShoulder
                {
                    OFFSET   0.117647   0.000000   0.000000
                    CHANNELS 3 Xrotation Yrotation Zrotation
                    JOINT lElbow
                    {
                        OFFSET   0.245000   0.000000   0.000000
                        CHANNELS 3 Xrotation Yrotation Zrotation
                        JOINT lWrist
                        {
                            OFFSET   0.240000   0.000000   0.000000
                            CHANNELS 3 Xrotation Yrotation Zrotation
                            End Site
                            {
                                OFFSET   0.116353  -0.002500   0.000000
                            }
                        }
                    }
                }
            }
        }
    }
    JOINT rHip
    {
        OFFSET  -0.100000  -0.051395   0.000000
        CHANNELS 3 Xrotation Yrotation Zrotation
        JOINT rKnee
        {
            OFFSET   0.000000  -0.410000   0.000000
            CHANNELS 3 Xrotation Yrotation Zrotation
            JOINT rAnkle
            {
                OFFSET   0.000000  -0.390000   0.000000
                CHANNELS 3 Xrotation Yrotation Zrotation
                JOINT rToeJoint
                {
                    OFFSET   0.000000  -0.050000   0.130000
                    CHANNELS 3 Xrotation Yrotation Zrotation
                    End Site
                    {
                        OFFSET  -0.010000   0.002000   0.060000
                    }
                }
            }
        }
    }
    JOINT lHip
    {
        OFFSET   0.100000  -0.051395   0.000000
        CHANNELS 3 Xrotation Yrotation Zrotation
        JOINT lKnee
        {
            OFFSET   0.000000  -0.410000   0.000000
            CHANNELS 3 Xrotation Yrotation Zrotation
            JOINT lAnkle
            {
                OFFSET   0.000000  -0.390000   0.000000
                CHANNELS 3 Xrotation Yrotation Zrotation
                JOINT lToeJoint
                {
                    OFFSET   0.000000  -0.050000   0.130000
                    CHANNELS 3 Xrotation Yrotation Zrotation
                    End Site
                    {
                        OFFSET   0.010000   0.002000   0.060000
                    }
                }
            }
        }
    }
}
MOTION
Frames: 12
Frame Time:   0.008333
 -2.327031   1.173833   4.032712  -2.822027   3.338250  -2.343832  10.082231   3.079853  -1.615057   7.031266  -1.965089   2.205173   2.043185   3.060488   0.026504   7.587369 -17.173136 -14.435992  27.162573  -5.015091  37.809778 -179.703194  88.206069 179.699508  -2.175640   5.028668   0.833505  11.627371  15.739115  13.220526  25.308886   4.962402 -33.725814  -0.009100 -85.908555  -0.009378  -4.768227 -10.007867  -0.579526 -11.682134   0.835458  -3.009296  63.093665   0.000193   0.001372  -3.557975  -5.678958   6.403590   0.038884  -0.001252  -0.002178  -0.360720  -2.477526  -0.326490  15.145930  -0.005091  -0.007925  27.821301   1.232420   3.612750 -10.969619   0.005426  -0.010279
 -2.326477   1.179175   4.033227  -2.693587   3.420260  -2.141706   9.889935   3.165616  -1.816888   7.012861  -1.814869   2.065361   2.378532   3.218540   0.149044   7.315284 -17.125457 -14.275605  26.913027  -4.915964  37.496664 -179.774810  87.754985 179.770561  -2.242892   5.026202   0.799774  11.401595  15.609867  13.177972  24.528313   4.772658 -33.576894   0.002527 -85.789058   0.002703  -4.807813  -9.988373  -0.756343 -11.795298   0.862389  -3.298168  63.544845   0.000526   0.000989  -3.616134  -5.350903   6.460963  -0.174498  -0.001130  -0.002234   0.209426  -2.342788  -0.438028  13.349461  -0.003664  -0.010189  29.630913   1.275884   3.715854 -11.132826   0.004455  -0.008492
 -2.325854   1.183792   4.033524  -2.553547   3.535419  -1.973576   9.733305   3.240918  -1.969500   6.995620  -1.667450   1.955257   2.694632   3.369642   0.264373   7.044169 -17.056777 -14.149728  26.658092  -4.817692  37.186625 -179.825102  87.326700 179.820333  -2.306933   5.061385   0.696383  11.167448  15.467508  13.171707  23.771499   4.595399 -33.416330   0.010711 -85.677299   0.011135  -4.844995  -9.981628  -0.795044 -11.931874   0.882442  -3.603598  63.990760   0.000965   0.000584  -3.672756  -5.044170   6.515581  -0.389415  -0.001120  -0.002208   0.710356  -2.221324  -0.505156  11.590190  -0.002215  -0.012250  31.320090   1.321100   3.811621 -11.256622   0.003639  -0.007041
 -2.325176   1.187694   4.033678  -2.415739   3.677399  -1.828604   9.608537   3.311106  -2.090449   6.992781  -1.526946   1.873257   2.990346   3.511460   0.373042   6.784741 -16.976067 -14.042336  26.409903  -4.719840  36.888145 -179.863592  86.923794 179.858433  -2.367622   5.118060   0.564742  10.941676  15.322468  13.188474  23.054646   4.429494 -33.252903   0.015799 -85.575051   0.016334  -4.879755  -9.981140  -0.768566 -12.062095   0.911142  -3.921686  64.410992   0.001457   0.000230  -3.726001  -4.758403   6.566696  -0.588217  -0.001176  -0.002112   1.151425  -2.109810  -0.543088   9.925889  -0.000854  -0.013897  32.894913   1.366094   3.900011 -11.375011   0.002969  -0.005898
 -2.324454   1.190889   4.033737  -2.281447   3.838808  -1.701990   9.508912   3.378251  -2.186803   7.003300  -1.392241   1.813841   3.267624   3.644399   0.475000   6.539957 -16.891120 -13.945789  26.173524  -4.623770  36.605535 -179.893846  86.546038 179.888457  -2.425319   5.184583   0.428766  10.728254  15.182362  13.219651  22.381392   4.275609 -33.092052   0.018703 -85.480324   0.019268  -4.912442  -9.983724  -0.713082 -12.180697   0.949476  -4.248295  64.803303   0.001932  -0.000065  -3.776031  -4.492204   6.614408  -0.771109  -0.001260  -0.001974   1.541553  -2.006624  -0.559818   8.362338   0.000365  -0.015073  34.363994   1.410476   3.981423 -11.486454   0.002418  -0.004986
 -2.323699   1.193382   4.033732  -2.150156   4.014541  -1.591063   9.428956   3.443289  -2.262999   7.024131  -1.262495   1.772689   3.527762   3.768977   0.570460   6.310577 -16.806503 -13.856218  25.950991  -4.530589  36.340465 -179.917850  86.192542 179.912382  -2.480341   5.254550   0.298392  10.528270  15.051234  13.259614  21.751878   4.133870 -32.936901   0.020098 -85.391765   0.020649  -4.943375  -9.987989  -0.643983 -12.287077   0.995510  -4.578801  65.168976   0.002350  -0.000304  -3.822986  -4.244207   6.658931  -0.939124  -0.001345  -0.001814   1.888063  -1.910806  -0.560240   6.896419   0.001411  -0.015806  35.734683   1.453924   4.056317 -11.590634   0.001966  -0.004249
 -2.322920   1.195178   4.033686  -2.021245   4.201128  -1.493801   9.364417   3.506629  -2.322505   7.052434  -1.137297   1.746360   3.771769   3.885688   0.659753   6.096428 -16.724666 -13.771608  25.742840  -4.440973  36.093193 -179.936948  85.862135 179.931526  -2.532925   5.324459   0.177425  10.341727  14.930768  13.304744  21.164710   4.003876 -32.789035   0.020460 -85.308530   0.020974  -4.972774  -9.993234  -0.568614 -12.381728   1.047089  -4.908993  65.509918   0.002692  -0.000488  -3.867003  -4.013130   6.700486  -1.093355  -0.001414  -0.001646   2.196983  -1.821616  -0.548026   5.523348   0.002273  -0.016156  37.013670   1.496194   4.125165 -11.687720   0.001595  -0.003647
 -2.322115   1.196201   4.033207  -1.786918   4.330520  -1.409365   9.326489   3.513545  -2.366007   6.962651  -0.961405   1.681566   4.021153   4.015122   0.774028   5.859696 -16.556766 -13.737182  25.430365  -4.365719  35.802111 -179.948200  85.647490 179.943019  -2.581552   5.378159   0.229616  10.134720  14.817353  13.494206  20.613987   3.924749 -32.702903   0.023927 -85.171570   0.024337  -4.979576  -9.986784  -0.632484 -12.717148   1.055817  -5.268336  66.014111   0.003005  -0.001149  -4.435856  -3.860988   6.741822  -1.210458  -0.001284  -0.001345   2.386245  -1.660459  -0.543784   3.976507   0.003064  -0.017057  38.617765   1.651116   4.227668 -11.788686   0.001334  -0.003266
 -2.321305   1.196519   4.032534  -1.557251   4.461362  -1.346410   9.330788   3.518220  -2.387468   6.889929  -0.782256   1.633827   4.250297   4.135171   0.879706   5.620945 -16.363160 -13.735290  25.111859  -4.289176  35.503624 -179.958060  85.450778 179.953059  -2.625775   5.408500   0.202313   9.934470  14.701720  13.712933  20.089433   3.860024 -32.596871   0.025646 -85.038997   0.025863  -4.985004  -9.984936  -0.645123 -13.072570   1.054623  -5.613299  66.503781   0.003199  -0.001702  -4.972812  -3.719955   6.782117  -1.361604  -0.001221  -0.001088   2.530771  -1.507796  -0.527870   2.483598   0.003688  -0.017474  40.114704   1.799525   4.319268 -11.869445   0.001104  -0.002885
 -2.320489   1.196148   4.031757  -1.339901   4.600784  -1.297030   9.364553   3.526523  -2.394646   6.843396  -0.606414   1.603121   4.465889   4.247312   0.978477   5.391922 -16.164994 -13.748577  24.803843  -4.212984  35.212645 -179.966830  85.265721 179.961996  -2.666833   5.442364   0.137563   9.744036  14.587930  13.942415  19.593677   3.803721 -32.481686   0.025860 -84.914703   0.025868  -4.989136  -9.986391  -0.620680 -13.416946   1.055523  -5.944157  66.959493   0.003326  -0.002069  -5.474343  -3.588728   6.820971  -1.502824  -0.001172  -0.000880   2.641739  -1.365305  -0.508172   1.074262   0.004114  -0.017517  41.510601   1.940143   4.400909 -11.947619   0.000906  -0.002567
 -2.319670   1.195095   4.030928  -1.133466   4.750053  -1.257449   9.418312   3.538064  -2.391155   6.818190  -0.436003   1.585990   4.669644   4.352340   1.070951   5.176080 -15.971326 -13.767845  24.511934  -4.138526  34.935365 -179.974468  85.091836 179.969823  -2.705518   5.481142   0.062203   9.564968  14.480149  14.172235  19.128332   3.754398 -32.364580   0.025068 -84.798255   0.024887  -4.992420  -9.989664  -0.576379 -13.743345   1.060646  -6.261184  67.381173   0.003404  -0.002271  -5.942678  -3.466659   6.858178  -1.633001  -0.001131  -0.000719   2.725788  -1.232093  -0.488237  -0.249737   0.004362  -0.017301  42.812831   2.073135   4.473652 -12.021785   0.000735  -0.002295
 -2.318858   1.193372   4.030013  -1.039881   4.928974  -1.216643   9.577189   3.543823  -2.377518   6.851819  -0.274788   1.583385   4.862594   4.450603   1.157766   4.971486 -15.775241 -13.792335  24.232740  -4.063151  34.671865 -179.981395  84.927503 179.976931  -2.742651   5.524627  -0.026864   9.394914  14.366736  14.401549  18.687363   3.705804 -32.246546   0.023372 -84.691256   0.023021  -4.995694  -9.994968  -0.509503 -13.964671   1.059499  -6.566007  67.786239   0.003480  -0.002350  -6.379003  -3.353087   6.893677  -1.748305  -0.001090  -0.000599   2.521508  -1.107497  -0.476474  -0.199673   0.003448  -0.013711  44.001135   2.198089   4.538875 -12.202370   0.000605  -0.002311
